 http://www.imdb.com/title/tt0074811/

Director Roman Polanski casts himself in the lead of the psychological thriller The Tenant. Trelkovsky (Polanski) rents an apartment in a spooky old residential building, where his neighbors - mostly old recluses - eye him with suspicious contempt. Upon discovering that the apartment's previous tenant, a beautiful young woman, jumped from the window in a suicide attempt, Trelkovsky begins obsessing over the dead woman. Growing increasingly paranoid, Trelkovsky convinces himself that his neighbors plan to kill him. He even comes to the conclusion that Stella (Isabel Adjani), the woman he has fallen in love with, is in on the "plot." Ultimately, Polanski assumes the identity of the suicide victim - and inherits her self-destructive urges.

Subtitles included: English, Swedish, Danish, Norwegian, Finnish, Icelandic (Vobsub) / English, Portuguese BR, Romanian (.srt)

Screenshots: 
http://img688.imageshack.us/img688/8140/ten2h.jpg 
http://img690.imageshack.us/img690/1063/ten1w.jpg 
http://img513.imageshack.us/img513/4303/ten5.jpg 
http://img703.imageshack.us/img703/2192/ten8.jpg


General
Format : AVI
Format/Info : Audio Video Interleave
File size : 1.55 GiB
Duration : 2h 0mn
Overall bit rate : 1 844 Kbps
Writing application : VirtualDubMod 1.5.10.2 (build 2540/release)
Writing library : VirtualDubMod build 2540/release

Video
ID : 0
Format : MPEG-4 Visual
Format profile : Advanced Simple@L5
Format settings, BVOP : 2
Format settings, QPel : Yes
Format settings, GMC : No warppoints
Format settings, Matrix : Default (H.263)
Muxing mode : Packed bitstream
Codec ID : XVID
Codec ID/Hint : XviD
Duration : 2h 0mn
Bit rate : 1 685 Kbps
Width : 704 pixels
Height : 384 pixels
Display aspect ratio : 16:9
Frame rate : 25.000 fps
Color space : YUV
Chroma subsampling : 4:2:0
Bit depth : 8 bits
Scan type : Progressive
Compression mode : Lossy
Bits/(Pixel*Frame) : 0.249
Stream size : 1.42 GiB (91%)
Writing library : XviD 1.1.0 Beta2 (UTC 2005-04-04)

Audio
ID : 1
Format : MPEG Audio
Format version : Version 1
Format profile : Layer 3
Mode : Joint stereo
Codec ID : 55
Codec ID/Hint : MP3
Duration : 2h 0mn
Bit rate mode : Variable
Bit rate : 146 Kbps
Nominal bit rate : 160 Kbps
Channel(s) : 2 channels
Sampling rate : 48.0 KHz
Compression mode : Lossy
Stream size : 126 MiB (8%)
Alignment : Aligned on interleaves
Interleave, duration : 24 ms (0.60 video frame)
Interleave, preload duration : 126 ms